<svg xmlns="http://www.w3.org/2000/svg" width="200" height="8" viewBox="0 0 200 8" fill="none"><circle cx="5" cy="4" r="3" fill="#EF8005"/><circle cx="15" cy="4" r="3" fill="#EF8005"/><circle cx="25" cy="4" r="3" fill="#EF8005"/><circle cx="35" cy="4" r="3" fill="#EF8005"/><circle cx="45" cy="4" r="3" fill="#EF8005"/><circle cx="55" cy="4" r="3" fill="#EF8005"/><circle cx="65" cy="4" r="3" fill="#EF8005"/><circle cx="75" cy="4" r="3" fill="#EF8005"/><circle cx="85" cy="4" r="3" fill="#EF8005"/><circle cx="95" cy="4" r="3" fill="#EF8005"/><circle cx="105" cy="4" r="3" fill="#EF8005"/><circle cx="115" cy="4" r="3" fill="#EF8005"/><circle cx="125" cy="4" r="3" fill="#EF8005"/><circle cx="135" cy="4" r="3" fill="#EF8005"/><circle cx="145" cy="4" r="3" fill="#EF8005"/><circle cx="155" cy="4" r="3" fill="#EF8005"/><circle cx="165" cy="4" r="3" fill="#EF8005"/><circle cx="175" cy="4" r="3" fill="#EF8005"/><circle cx="185" cy="4" r="3" fill="#EF8005"/><circle cx="195" cy="4" r="3" fill="#EF8005"/></svg>